<svg xmlns="http://www.w3.org/2000/svg" width="33.457" height="33.457" viewBox="0 0 33.457 33.457">
  <path id="Icon_metro-qrcode" data-name="Icon metro-qrcode" d="M13.026,4.019H4.662v8.364h8.364Zm2.091-2.091V14.475H2.571V1.928ZM6.753,6.11h4.182v4.182H6.753ZM33.937,4.019H25.573v8.364h8.364Zm2.091-2.091V14.475H23.482V1.928H36.028ZM27.664,6.11h4.182v4.182H27.664ZM13.026,24.93H4.662v8.364h8.364Zm2.091-2.091V35.385H2.571V22.839ZM6.753,27.021h4.182V31.2H6.753ZM17.208,1.928H19.3V4.019H17.208ZM19.3,4.019h2.091V6.11H19.3ZM17.208,6.11H19.3V8.2H17.208ZM19.3,8.2h2.091v2.091H19.3Zm-2.091,2.091H19.3v2.091H17.208ZM19.3,12.383h2.091v2.091H19.3Zm-2.091,2.091H19.3v2.091H17.208Zm0,4.182H19.3v2.091H17.208ZM19.3,20.748h2.091v2.091H19.3Zm-2.091,2.091H19.3V24.93H17.208ZM19.3,24.93h2.091v2.091H19.3Zm-2.091,2.091H19.3v2.091H17.208ZM19.3,29.112h2.091V31.2H19.3ZM17.208,31.2H19.3v2.091H17.208ZM19.3,33.294h2.091v2.091H19.3ZM33.937,18.657h2.091v2.091H33.937Zm-29.275,0H6.753v2.091H4.662Zm2.091-2.091H8.844v2.091H6.753Zm-4.182,0H4.662v2.091H2.571Zm8.364,0h2.091v2.091H10.935Zm2.091,2.091h2.091v2.091H13.026Zm2.091-2.091h2.091v2.091H15.117Zm6.273,2.091h2.091v2.091H21.391Zm2.091-2.091h2.091v2.091H23.482Zm2.091,2.091h2.091v2.091H25.573Zm2.091-2.091h2.091v2.091H27.664Zm2.091,2.091h2.091v2.091H29.755Zm2.091-2.091h2.091v2.091H31.846Zm2.091,6.273h2.091V24.93H33.937Zm-12.547,0h2.091V24.93H21.391Zm2.091-2.091h2.091v2.091H23.482Zm2.091,2.091h2.091V24.93H25.573Zm4.182,0h2.091V24.93H29.755Zm2.091-2.091h2.091v2.091H31.846Zm2.091,6.273h2.091v2.091H33.937Zm-12.547,0h2.091v2.091H21.391Zm2.091-2.091h2.091v2.091H23.482Zm4.182,0h2.091v2.091H27.664Zm2.091,2.091h2.091v2.091H29.755Zm2.091-2.091h2.091v2.091H31.846ZM33.937,31.2h2.091v2.091H33.937ZM23.482,29.112h2.091V31.2H23.482ZM25.573,31.2h2.091v2.091H25.573Zm2.091-2.091h2.091V31.2H27.664ZM29.755,31.2h2.091v2.091H29.755Zm-6.273,2.091h2.091v2.091H23.482Zm4.182,0h2.091v2.091H27.664Zm4.182,0h2.091v2.091H31.846Z" transform="translate(-2.571 -1.928)" fill="#fff"/>
</svg>
