<svg xmlns="http://www.w3.org/2000/svg" width="22.326" height="25.515" viewBox="0 0 22.326 25.515">
  <path id="Icon_awesome-bell" data-name="Icon awesome-bell" d="M11.163,25.515a3.189,3.189,0,0,0,3.188-3.189H7.975A3.189,3.189,0,0,0,11.163,25.515ZM21.9,18.055c-.963-1.035-2.764-2.591-2.764-7.689a7.87,7.87,0,0,0-6.376-7.732V1.595a1.594,1.594,0,1,0-3.187,0V2.633a7.87,7.87,0,0,0-6.376,7.732c0,5.1-1.8,6.654-2.764,7.689A1.557,1.557,0,0,0,0,19.137a1.6,1.6,0,0,0,1.6,1.595H20.726a1.6,1.6,0,0,0,1.6-1.595,1.556,1.556,0,0,0-.429-1.082Z" transform="translate(0)" fill="#fff"/>
</svg>
