<svg xmlns="http://www.w3.org/2000/svg" width="25.515" height="25.515" viewBox="0 0 25.515 25.515">
  <path id="Icon_material-account-circle" data-name="Icon material-account-circle" d="M15.758,3A12.758,12.758,0,1,0,28.515,15.758,12.762,12.762,0,0,0,15.758,3Zm0,3.827a3.827,3.827,0,1,1-3.827,3.827A3.822,3.822,0,0,1,15.758,6.827Zm0,18.116A9.186,9.186,0,0,1,8.1,20.835c.038-2.539,5.1-3.929,7.655-3.929s7.616,1.391,7.655,3.929A9.186,9.186,0,0,1,15.758,24.943Z" transform="translate(-3 -3)" fill="#fff"/>
</svg>
