<svg xmlns="http://www.w3.org/2000/svg" width="22" height="49" viewBox="0 0 22 49">
  <g id="Icon_ionic-ios-checkbox-outline" data-name="Icon ionic-ios-checkbox-outline" transform="translate(-4.033 -4.517)">
    <path id="Path_6" data-name="Path 6" d="M22.256,13.265l-.966-.993a.208.208,0,0,0-.154-.066h0a.2.2,0,0,0-.154.066L14.29,19.015l-2.436-2.436a.212.212,0,0,0-.307,0l-.977.977a.219.219,0,0,0,0,.313l3.072,3.072a.972.972,0,0,0,.642.313,1.018,1.018,0,0,0,.636-.3h.005l7.335-7.373A.235.235,0,0,0,22.256,13.265Z" transform="translate(-1.32 -1.693)" fill="#fff"/>
    <g id="Rectangle_13" data-name="Rectangle 13" transform="translate(4.033 4.517)" fill="none" stroke="#fff" stroke-width="3">
      <rect width="22" height="22" rx="3" stroke="none"/>
      <rect x="1.5" y="1.5" width="19" height="19" rx="1.5" fill="none"/>
    </g>
    <g id="Rectangle_14" data-name="Rectangle 14" transform="translate(4.033 31.517)" fill="none" stroke="#fff" stroke-width="3">
      <rect width="22" height="22" rx="3" stroke="none"/>
      <rect x="1.5" y="1.5" width="19" height="19" rx="1.5" fill="none"/>
    </g>
  </g>
</svg>
