<svg xmlns="http://www.w3.org/2000/svg" width="29.924" height="24.313" viewBox="0 0 29.924 24.313">
  <path id="Icon_awesome-list" data-name="Icon awesome-list" d="M4.676,22.078H.935A.935.935,0,0,0,0,23.013v3.741a.935.935,0,0,0,.935.935H4.676a.935.935,0,0,0,.935-.935V23.013A.935.935,0,0,0,4.676,22.078Zm0-18.7H.935A.935.935,0,0,0,0,4.31V8.051a.935.935,0,0,0,.935.935H4.676a.935.935,0,0,0,.935-.935V4.31A.935.935,0,0,0,4.676,3.375Zm0,9.351H.935A.935.935,0,0,0,0,13.661V17.4a.935.935,0,0,0,.935.935H4.676a.935.935,0,0,0,.935-.935V13.661A.935.935,0,0,0,4.676,12.726ZM28.989,23.013h-18.7a.935.935,0,0,0-.935.935v1.87a.935.935,0,0,0,.935.935h18.7a.935.935,0,0,0,.935-.935v-1.87A.935.935,0,0,0,28.989,23.013Zm0-18.7h-18.7a.935.935,0,0,0-.935.935v1.87a.935.935,0,0,0,.935.935h18.7a.935.935,0,0,0,.935-.935V5.245A.935.935,0,0,0,28.989,4.31Zm0,9.351h-18.7a.935.935,0,0,0-.935.935v1.87a.935.935,0,0,0,.935.935h18.7a.935.935,0,0,0,.935-.935V14.6A.935.935,0,0,0,28.989,13.661Z" transform="translate(0 -3.375)" fill="#ff5b36"/>
</svg>
